<svg width="101" height="25" viewBox="0 0 101 25" fill="none" xmlns="http://www.w3.org/2000/svg">
<path d="M18.2134 4.4961C19.0693 5.84683 19.5209 7.4204 19.5133 9.02618V17.2478C19.5134 17.2864 19.5017 17.324 19.4798 17.3555C19.4578 17.387 19.4268 17.4108 19.3909 17.4236L15.8923 18.6833C15.8645 18.6932 15.8347 18.6962 15.8055 18.6921C15.7763 18.6879 15.7485 18.6767 15.7245 18.6595C15.7004 18.6422 15.6808 18.6193 15.6673 18.5927C15.6538 18.5661 15.6467 18.5366 15.6467 18.5067V16.2798C15.647 16.245 15.6377 16.2108 15.6197 16.1811C15.6018 16.1513 15.576 16.1273 15.5453 16.1117C15.5145 16.0962 15.4801 16.0896 15.4459 16.0929C15.4117 16.0962 15.3791 16.1091 15.3518 16.1302C14.6454 16.6917 13.8548 17.1344 13.0101 17.4415C11.999 17.8302 10.9274 18.0314 9.84621 18.0355C7.08222 18.0355 4.79651 17.1675 2.98908 15.4316C1.18164 13.6956 0.247698 11.5605 0.187238 9.02618C0.138913 7.42327 0.572214 5.84334 1.42963 4.4961C2.29624 3.10925 3.47596 2.01213 4.9688 1.20476C6.47082 0.398692 8.14706 -0.0152059 9.84621 0.000426946C11.6001 0.000426946 13.2168 0.40586 14.6963 1.21673C16.1326 1.97699 17.3457 3.10817 18.2134 4.4961ZM5.71718 5.20673C4.57187 6.26894 4.0147 7.54209 4.04566 9.02618C4.08646 10.5222 4.66526 11.7954 5.78207 12.8456C6.89887 13.8959 8.25358 14.4212 9.84621 14.4217C11.458 14.4217 12.8375 13.8906 13.9848 12.8284C15.1321 11.7662 15.6856 10.4988 15.6453 9.02618C15.6143 7.53012 15.0404 6.25422 13.9236 5.1985C12.8068 4.14278 11.4477 3.61467 9.84621 3.61417C8.23294 3.61417 6.8566 4.14502 5.71718 5.20673Z" fill="#ED6E24"/>
<path d="M60.4537 4.49615C61.3097 5.84688 61.7612 7.42045 61.7536 9.02623V17.3803L57.8827 18.7708V15.8775C57.1685 16.5258 56.2886 17.0481 55.2431 17.4446C54.2332 17.8317 53.1631 18.0318 52.0836 18.0355C49.3191 18.0355 47.0334 17.1676 45.2265 15.4316C43.4196 13.6957 42.4856 11.5606 42.4247 9.02623C42.3772 7.423 42.8115 5.84305 43.67 4.49615C44.5366 3.1093 45.7163 2.01218 47.2092 1.20481C48.7103 0.399225 50.3855 -0.0146583 52.0836 0.000476967C53.8375 0.000476967 55.4542 0.40591 56.9337 1.21678C58.3711 1.97661 59.5853 3.10782 60.4537 4.49615ZM47.9546 5.20678C46.8117 6.26899 46.2558 7.54214 46.2868 9.02623C46.3271 10.5223 46.9059 11.7954 48.0232 12.8457C49.1405 13.8959 50.4939 14.4213 52.0836 14.4218C53.6954 14.4218 55.0749 13.8907 56.2222 12.8285C57.3695 11.7663 57.923 10.4989 57.8827 9.02623C57.8517 7.53017 57.2778 6.25427 56.161 5.19855C55.0442 4.14283 53.6851 3.61472 52.0836 3.61422C50.4723 3.61422 49.096 4.14507 47.9546 5.20678Z" fill="#ED6E24"/>
<path d="M21.2099 24.9963C21.1884 25.0013 21.166 25.0012 21.1444 24.9962C21.1229 24.9912 21.1027 24.9813 21.0854 24.9673C21.0682 24.9533 21.0542 24.9355 21.0446 24.9153C21.035 24.8951 21.03 24.8729 21.03 24.8505C21.0404 22.8644 21.0455 18.3733 21.0455 9.0094C21.042 7.40021 21.5113 5.82646 22.3933 4.48904C23.2924 3.0957 24.5132 1.99859 26.0556 1.1977C27.5981 0.396803 29.2837 -0.00214763 31.1122 0.000844495C32.9413 0.000844495 34.6371 0.399795 36.1998 1.1977C37.7624 1.9956 38.9937 3.09271 39.8938 4.48904C40.7943 5.88137 41.2281 7.38816 41.1952 9.0094C41.1317 11.5557 40.1585 13.6966 38.2753 15.432C36.3922 17.1674 34.0045 18.0354 31.1122 18.0359C29.9848 18.0327 28.8668 17.8276 27.8097 17.43C26.8266 17.0669 25.9863 16.6054 25.2888 16.0454C25.2671 16.028 25.2411 16.0171 25.2136 16.0141C25.1861 16.011 25.1583 16.0158 25.1334 16.028C25.1085 16.0401 25.0875 16.0592 25.0727 16.0829C25.058 16.1066 25.0501 16.134 25.0499 16.1621V24.0015C25.0499 24.0354 25.0385 24.0683 25.0176 24.0948C24.9967 24.1213 24.9675 24.1399 24.9349 24.1473L21.2099 24.9963ZM31.1122 14.4222C32.7835 14.4222 34.2006 13.894 35.3636 12.8378C36.5266 11.7816 37.1251 10.5055 37.159 9.0094C37.2013 7.53627 36.6242 6.26886 35.4278 5.20715C34.2314 4.14544 32.7928 3.61459 31.1122 3.61459C29.4532 3.61459 28.0413 4.13996 26.8763 5.19069C25.7113 6.24143 25.1077 7.51433 25.0654 9.0094C25.0335 10.494 25.6132 11.7671 26.8048 12.8288C27.9963 13.8906 29.4321 14.4217 31.1122 14.4222Z" fill="#ED6E24"/>
<path d="M77.7846 1.34749C79.2651 2.19127 80.3905 3.28464 81.1608 4.62761C81.1788 4.65919 81.1899 4.69433 81.1934 4.73065C81.1968 4.76697 81.1925 4.80362 81.1807 4.8381C81.169 4.87259 81.1501 4.9041 81.1253 4.93051C81.1004 4.95692 81.0703 4.9776 81.0369 4.99115L77.932 6.2456C77.8789 6.267 77.82 6.26924 77.7654 6.25195C77.7108 6.23466 77.6637 6.19889 77.6319 6.1506C77.1512 5.40855 76.4842 4.81013 75.6308 4.35532C74.7186 3.86618 73.7015 3.61309 72.6698 3.61851C71.0757 3.61851 69.7256 4.14662 68.6196 5.20284C67.5136 6.25907 66.9402 7.53496 66.8994 9.03052C66.869 10.5031 67.4222 11.7706 68.5592 12.8328C69.6961 13.895 71.0663 14.4261 72.6698 14.4261C73.6649 14.4387 74.6461 14.1878 75.5166 13.6982C76.3033 13.2542 76.981 12.6356 77.4992 11.8888C77.5303 11.8449 77.5745 11.8124 77.6253 11.7961C77.676 11.7798 77.7306 11.7805 77.7809 11.7982L80.9698 12.8889C81.005 12.901 81.037 12.921 81.0636 12.9472C81.0902 12.9735 81.1108 13.0054 81.1238 13.0407C81.1367 13.0759 81.1418 13.1137 81.1387 13.1512C81.1355 13.1888 81.1242 13.2251 81.1055 13.2577C80.2945 14.6723 79.1358 15.8493 77.7425 16.6739C76.2305 17.582 74.5408 18.0361 72.6734 18.0361C70.9842 18.0505 69.3179 17.6393 67.824 16.8392C66.3811 16.0804 65.1643 14.9441 64.2996 13.5479C63.4496 12.2008 63.0199 10.6248 63.0668 9.02604C63.0919 7.81116 63.3682 6.61517 63.8779 5.51552C64.3709 4.43554 65.0635 3.46147 65.9181 2.64607C66.8032 1.81723 67.8336 1.16391 68.9558 0.719889C70.1366 0.23979 71.3977 -0.00430434 72.6698 0.00103005C74.4613 -0.0102918 76.2245 0.453883 77.7846 1.34749Z" fill="#ED6E24"/>
<path d="M95.5854 1.21711C96.9877 1.98123 98.1618 3.11391 98.9844 4.49648C99.8041 5.85847 100.22 7.43124 100.181 9.02656C100.18 9.28084 100.162 9.53476 100.127 9.78656C100.12 9.85032 100.09 9.90915 100.043 9.95208C99.9956 9.99501 99.9347 10.0191 99.8714 10.0199H85.7435C85.7033 10.0211 85.6638 10.0314 85.628 10.0502C85.5922 10.069 85.5611 10.0958 85.537 10.1285C85.5129 10.1613 85.4964 10.1992 85.4887 10.2393C85.4811 10.2794 85.4825 10.3208 85.4929 10.3603C85.7568 11.4529 86.355 12.3673 87.2875 13.1033C88.3153 13.9142 89.5243 14.3538 90.9144 14.4221C93.0812 14.5438 94.8053 13.982 96.0867 12.7368C96.1205 12.703 96.1629 12.6795 96.2092 12.6689C96.2554 12.6583 96.3037 12.6611 96.3485 12.677L99.3789 13.7713C99.4182 13.7866 99.4535 13.811 99.4819 13.8424C99.5104 13.8739 99.5313 13.9116 99.5429 13.9527C99.5546 13.9937 99.5567 14.0369 99.5491 14.0789C99.5414 14.1209 99.5243 14.1606 99.4991 14.1947C98.7303 15.2484 97.6821 16.1406 96.3544 16.8712C94.9009 17.6691 93.0875 18.0573 90.9144 18.0359C89.2763 18.0272 87.6663 17.6032 86.2309 16.8024C84.8349 16.0357 83.6645 14.9069 82.8392 13.5312C82.0153 12.1808 81.6016 10.614 81.6499 9.02656C81.6746 7.81443 81.942 6.62005 82.4359 5.51605C83.383 3.33097 85.1391 1.61142 87.3251 0.728642C88.4637 0.253359 89.6839 0.0118255 90.9151 0.0180112C92.5472 0.00697497 94.1549 0.419763 95.5854 1.21711ZM87.8936 4.65805C87.058 5.23645 86.3902 6.03118 85.9596 6.95975C85.9405 7.00109 85.932 7.04665 85.9348 7.09221C85.9377 7.13777 85.9518 7.18186 85.9759 7.22041C86.0001 7.25896 86.0333 7.29072 86.0728 7.31276C86.1122 7.33479 86.1564 7.34639 86.2014 7.34648H96.3448C96.3886 7.34622 96.4316 7.33508 96.4701 7.31404C96.5086 7.29299 96.5415 7.26269 96.5658 7.22578C96.5901 7.18887 96.6051 7.14648 96.6095 7.10232C96.6139 7.05816 96.6076 7.01357 96.5911 6.97247C96.2077 6.05687 95.5632 5.28939 94.6578 4.67002C93.6494 3.97303 92.4553 3.60481 91.2351 3.61455C89.9881 3.61455 88.8737 3.96288 87.8921 4.65955L87.8936 4.65805Z" fill="#ED6E24"/>
</svg>
